*********** **** **** *** ******** *********** **** *** **********
*+* +*+*+* *+*+*+ *+* *+* *+* *+* *+* *+*+* *+* *+*
+*+ +*+ +*+*+ +*+ +*+ +*+ +*+ +*+ *+*+*+ +*+ +*+
+$+ +$+ +*+ +$+ +$++*++$++* *$* +$+ +$+ +*+ +$+ +$++*++$
+$+ +$+ +$+ +$+ +$+ +$+ +$+$ +$+ +$+ +$+$+$ +$+
$+$ $+$ $+$ $+$ $+$ $+$ $+$ $+$ $+$ $+$+$ $+$
$$$$$$$$$$$ $$$ $$$ $$$ $$$ $$$$$$$$ $$$$$$$$$$$ $$$ $$$$ $$$$$$$$$$


Another Fine Release Brought to you from - IMAGiNE


********************************************************************************************************************



Piranha 3D TS READNFO XViD - IMAGiNE

********************************************************************************************************************

Ripper ...........: IMAGiNE IMDB Rating.......:7.1/10
Video Codec.......: XVID Release Date......:31/08/10
Audio Codec.......:MP3 Theatre Date......:210/08/10
Audio Bitrate.....:128 Runtime.......:1h 22mn
Subtitles.........:NIL Language..........:ENGLISH
Resolution...... 704 x 304 IMDb URL.......... http://www.imdb.com/title/tt0464154/

DETAILS:

Video
ID : 0
Format : MPEG-4 Visual
Format profile : Advanced Simple@L5
Format settings, BVOP : Yes
Format settings, QPel : No
Format settings, GMC : No warppoints
Format settings, Matrix : Default (MPEG)
Muxing mode : Packed bitstream
Codec ID : XVID
Codec ID/Hint : XviD
Duration : 1h 22mn
Bit rate : 2 254 Kbps
Width : 704 pixels
Height : 304 pixels
Display aspect ratio : 2.35
Frame rate : 23.976 fps
Resolution : 24 bits
Colorimetry : 4:2:0
Scan type : Progressive
Bits/(Pixel*Frame) : 0.439
Stream size : 1.30 GiB (94%)
Writing library : XviD 1.2.1 (UTC 2008-12-04)

Audio
ID : 1
Format : MPEG Audio
Format version : Version 1
Format profile : Layer 3
Codec ID : 55
Codec ID/Hint : MP3
Duration : 1h 22mn
Bit rate mode : Constant
Bit rate : 128 Kbps
Channel(s) : 2 channels
Sampling rate : 44.1 KHz
Resolution : 16 bits
Stream size : 75.4 MiB (5%)
Alignment : Split accross interleaves
Interleave, duration : 42 ms (1.00 video frame)
Interleave, preload duration : 500 ms

SOURCES:

VIDEO:Piranha.3D.2010.TS.DVDR-Demedic,Russian relizlab video 5mins 37secs ...............Thanks to both.
AUDIO:Our own line audio.

NOTES:

IMAGiNE bringing you another release.....Piranha.3D
Well for the work done see our cam version NFO..... :P
All this is,is the same video we released but now synced to some nice line audio ;-)
The audio if turned right up as some noise to it,but it's alot better than the cam audio thats for sure.
And if anyone was confused by our work done on our cam release,i'll sum it up short for ya.....
This film is complete no missing scenes.....but we did have to use two sources for the video. First 5mins are blurry due to the 3D effect and

then the rest is fine.
Anyway enjoy this crazy film :)

SCREENS:
vlcsnap-54819.png

vlcsnap-58724.png

vlcsnap-55062.png

f19ZRYTq.png

kHXk0mW3.png

OklxsUG.png

GREETS:
FLAWL3SS,ViSiON,FUSiON,Rx,SecretMyth,BirdFlu,ELEKTRI4KA and Autotron
And to all the other p2p grps past and present

Looking for these,syncers,cammers,silver supplier.....Have anything to offer????......
Contact us imaginegroup@hushmail.com